<svg width="94" height="47" viewBox="0 0 94 47" fill="none" xmlns="http://www.w3.org/2000/svg">
<path fill-rule="evenodd" clip-rule="evenodd" d="M49.3834 16.7306C49.3834 17.0814 49.2794 17.4243 49.0845 17.7159C48.8896 18.0076 48.6126 18.2349 48.2886 18.3691C47.9645 18.5033 47.6079 18.5385 47.2639 18.47C46.9199 18.4016 46.6039 18.2327 46.3559 17.9847C46.1078 17.7366 45.9389 17.4206 45.8705 17.0766C45.8021 16.7326 45.8372 16.376 45.9714 16.052C46.1057 15.7279 46.333 15.4509 46.6246 15.2561C46.9163 15.0612 47.2591 14.9572 47.6099 14.9572C47.843 14.9564 48.0739 15.0018 48.2894 15.0907C48.5049 15.1796 48.7007 15.3102 48.8655 15.475C49.0304 15.6398 49.161 15.8356 49.2498 16.0511C49.3387 16.2666 49.3841 16.4975 49.3834 16.7306ZM42.067 20.2948V20.7335C41.7323 20.3713 41.3231 20.0861 40.8674 19.8974C40.4118 19.7088 39.9207 19.6212 39.428 19.6407C38.7219 19.6331 38.0216 19.7687 37.3694 20.0392C36.7172 20.3098 36.1266 20.7097 35.6332 21.2148C35.1398 21.72 34.754 22.3199 34.4989 22.9783C34.2438 23.6367 34.1248 24.34 34.1491 25.0457C34.1241 25.7514 34.2423 26.4548 34.4967 27.1135C34.7511 27.7722 35.1364 28.3725 35.6293 28.8782C36.1221 29.3839 36.7123 29.7844 37.3643 30.0556C38.0163 30.3268 38.7164 30.4631 39.4225 30.4562C39.9181 30.479 40.4125 30.3903 40.8693 30.1965C41.326 30.0028 41.7335 29.709 42.0616 29.3368V29.8013C42.0608 29.8514 42.0701 29.9012 42.089 29.9476C42.1078 29.994 42.1357 30.0362 42.1712 30.0716C42.2066 30.1071 42.2488 30.135 42.2952 30.1538C42.3416 30.1727 42.3914 30.182 42.4415 30.1813H44.6536V19.8969H42.4603C42.3604 19.8996 42.2653 19.9405 42.1947 20.0112C42.124 20.0819 42.0831 20.1769 42.0803 20.2768L42.067 20.2948ZM42.067 26.8717C41.8138 27.2206 41.481 27.5041 41.0963 27.6988C40.7116 27.8934 40.286 27.9936 39.8549 27.9911C38.1081 27.9911 36.7725 26.8983 36.7725 25.0457C36.7725 23.1931 38.1081 22.1004 39.8549 22.1004C40.285 22.1036 40.7085 22.2064 41.0923 22.4006C41.4761 22.5948 41.8097 22.8751 42.067 23.2198V26.8779V26.8717ZM46.297 19.9141H48.9369V30.1758H46.297V19.8969V19.9141ZM85.4379 19.6399C84.9451 19.6204 84.454 19.708 83.9984 19.8967C83.5428 20.0853 83.1335 20.3705 82.7988 20.7327V14.9736H80.159V30.1742H82.3703C82.4702 30.1714 82.5652 30.1305 82.6359 30.0599C82.7066 29.9892 82.7475 29.8942 82.7502 29.7943V29.3298C83.0806 29.6977 83.4876 29.9886 83.9426 30.1821C84.3977 30.3755 84.8897 30.4667 85.3838 30.4492C86.0892 30.4546 86.7885 30.3175 87.4397 30.0462C88.091 29.7749 88.6807 29.3749 89.1736 28.8702C89.6665 28.3655 90.0525 27.7665 90.3083 27.109C90.5642 26.4516 90.6847 25.7493 90.6627 25.0442C90.6854 24.3389 90.5653 23.6362 90.3097 22.9785C90.0541 22.3208 89.6681 21.7215 89.1751 21.2167C88.682 20.7119 88.092 20.3119 87.4405 20.0408C86.789 19.7697 86.0894 19.6331 85.3838 19.6392L85.4379 19.6399ZM84.9921 27.9652C84.5604 27.9713 84.1336 27.8727 83.7483 27.6777C83.3631 27.4827 83.0308 27.1973 82.78 26.8458V23.1869C83.0459 22.8515 83.3814 22.5778 83.7633 22.3845C84.1452 22.1913 84.5644 22.0831 84.9921 22.0675C86.739 22.0675 88.0746 23.1602 88.0746 25.0128C88.0746 26.8654 86.739 27.9582 84.9921 27.9582V27.9652ZM78.821 24.0908V30.2032H76.1812V24.3963C76.1812 22.702 75.6532 22.0213 74.1602 22.0213C73.7579 22.0353 73.3629 22.132 72.9997 22.3055C72.6365 22.4789 72.3129 22.7254 72.0491 23.0294V30.1766H69.4093V19.8969H71.4836C71.5834 19.8996 71.6785 19.9405 71.7491 20.0112C71.8198 20.0819 71.8607 20.1769 71.8635 20.2768V20.7155C72.2277 20.3528 72.6625 20.0687 73.141 19.8807C73.6194 19.6928 74.1314 19.6049 74.6451 19.6227C75.689 19.5841 76.7102 19.9338 77.5113 20.6042C78.4403 21.3695 78.7936 22.3511 78.7936 24.072L78.821 24.0908ZM63.076 19.6415C62.5833 19.622 62.0922 19.7096 61.6366 19.8982C61.181 20.0869 60.7717 20.3721 60.437 20.7343V14.9752H57.7971V30.1742H60.0093C60.1092 30.1714 60.2042 30.1305 60.2749 30.0599C60.3455 29.9892 60.3864 29.8942 60.3892 29.7943V29.3298C60.7201 29.6984 61.1281 29.9898 61.5841 30.1832C62.0402 30.3767 62.5332 30.4675 63.0283 30.4492C63.7337 30.4546 64.433 30.3175 65.0842 30.0462C65.7354 29.7749 66.3251 29.3749 66.8181 28.8702C67.311 28.3655 67.6969 27.7665 67.9528 27.109C68.2087 26.4516 68.3292 25.7493 68.3071 25.0442C68.3345 24.3377 68.2176 23.6331 67.9636 22.9733C67.7096 22.3135 67.3238 21.7124 66.8299 21.2066C66.3359 20.7008 65.744 20.301 65.0904 20.0315C64.4368 19.762 63.7352 19.6285 63.0283 19.6392L63.076 19.6415ZM62.6358 27.9652C62.2041 27.9713 61.7773 27.8727 61.392 27.6777C61.0067 27.4827 60.6745 27.1973 60.4237 26.8458V23.1869C60.6896 22.8515 61.025 22.5778 61.4069 22.3845C61.7888 22.1913 62.2081 22.0831 62.6358 22.0675C64.3826 22.0675 65.7182 23.1602 65.7182 25.0128C65.7182 26.8654 64.3826 27.9582 62.6358 27.9582V27.9652ZM55.5231 19.6384C55.9287 19.6255 56.334 19.6717 56.7263 19.7755V22.2038C56.7263 22.2038 54.533 21.4808 53.1794 23.0216V30.2008H50.5396V19.8969H52.7517C52.8516 19.8996 52.9466 19.9405 53.0173 20.0112C53.0879 20.0819 53.1289 20.1769 53.1316 20.2768V20.7155C53.7575 20.0652 54.6057 19.675 55.5067 19.6227L55.5231 19.6384ZM28.3101 29.246L27.8981 28.2644L27.2699 26.8701L27.2432 26.8435C25.3342 22.6832 23.324 18.57 21.2147 14.5075L21.1301 14.3509L20.4799 13.0427C20.2111 12.5071 19.8818 12.0041 19.4984 11.5434C19.0813 11.0178 18.5497 10.5943 17.9441 10.3053C17.3385 10.0163 16.675 9.86934 16.004 9.87569C15.3375 9.87789 14.6796 10.0254 14.0761 10.3081C13.4725 10.5907 12.9379 11.0016 12.5095 11.5121C12.1354 11.9795 11.8067 12.4815 11.528 13.0114L10.7893 14.4574C8.67823 18.5542 6.64 22.6981 4.75608 26.7933L4.72945 26.8458C4.57278 27.2947 4.34953 27.7545 4.12785 28.2449C3.9905 28.5441 3.85316 28.8713 3.71581 29.2264C3.36757 30.1666 3.25514 31.1779 3.38838 32.1717C3.53527 33.1697 3.9396 34.1122 4.56155 34.9064C5.18351 35.7006 6.00162 36.3191 6.93531 36.7009C7.63542 36.9952 8.38802 37.1442 9.14745 37.1388C9.38404 37.1348 9.62021 37.1173 9.8548 37.0863C10.8178 36.9635 11.746 36.6475 12.5839 36.1573C13.8566 35.3983 14.9989 34.4395 15.9671 33.3177C16.9414 34.4333 18.0827 35.3912 19.3504 36.1573C20.1882 36.6477 21.1165 36.9637 22.0795 37.0863C22.3141 37.1173 22.5503 37.1348 22.7868 37.1388C23.5465 37.1467 24.2996 36.9977 24.999 36.7009C25.9327 36.3191 26.7508 35.7006 27.3727 34.9064C27.9947 34.1122 28.399 33.1697 28.5459 32.1717C28.747 31.1953 28.6607 30.1815 28.2976 29.253L28.3101 29.246ZM16.0055 30.6661C14.5329 28.8081 13.5772 27.0659 13.2498 25.5878C13.116 25.0439 13.0873 24.4794 13.1652 23.9248C13.2192 23.5139 13.3692 23.1216 13.603 22.7795C13.8766 22.4001 14.2379 22.0924 14.6561 21.8829C15.0743 21.6734 15.537 21.5682 16.0047 21.5763C16.4735 21.5583 16.9393 21.6586 17.359 21.8681C17.7788 22.0776 18.139 22.3894 18.4064 22.7748C18.6403 23.1169 18.7903 23.5092 18.8443 23.9201C18.9226 24.4747 18.8939 25.0392 18.7597 25.5831C18.4323 27.0291 17.4774 28.7501 16.004 30.6614L16.0055 30.6661ZM26.8954 31.9485C26.7928 32.6472 26.5094 33.307 26.0733 33.8625C25.6372 34.418 25.0635 34.8499 24.4091 35.1155C23.7565 35.3915 23.0438 35.4951 22.3396 35.4163C21.6069 35.3256 20.9007 35.0848 20.2653 34.7089C19.094 34.0018 18.0443 33.1107 17.1562 32.0699C18.9563 29.8577 20.0491 27.8399 20.4603 26.0366C20.6379 25.2759 20.6843 24.4904 20.5974 23.7141C20.4961 23.0465 20.2434 22.4109 19.8587 21.856C19.4262 21.2387 18.8486 20.7372 18.1766 20.3958C17.5047 20.0543 16.7591 19.8832 16.0055 19.8977C15.2558 19.8881 14.5148 20.0591 13.8451 20.3963C13.1753 20.7335 12.5966 21.2269 12.1578 21.8348C11.7732 22.3898 11.5205 23.0253 11.4191 23.6929C11.3037 24.4682 11.3504 25.2591 11.5562 26.0155C11.9682 27.8156 13.0868 29.8632 14.8603 32.0754C13.9785 33.1224 12.9276 34.0144 11.7512 34.7144C11.1158 35.0984 10.4077 35.3465 9.6715 35.4429C8.96807 35.521 8.25621 35.4269 7.59723 35.1687C6.94284 34.9032 6.36918 34.4712 5.93308 33.9157C5.49699 33.3602 5.21358 32.7005 5.11093 32.0017C5.02464 31.2883 5.10977 30.5646 5.35925 29.8906C5.44385 29.6165 5.57545 29.3627 5.71175 29.0196C5.9021 28.5809 6.12378 28.1172 6.33998 27.6527L6.36661 27.6002C8.25131 23.5268 10.2676 19.3869 12.3748 15.3434L12.4531 15.1475L13.108 13.8911C13.3205 13.4579 13.5845 13.0521 13.8944 12.6824C14.1635 12.3662 14.4981 12.1123 14.8749 11.9381C15.2518 11.764 15.662 11.6738 16.0772 11.6738C16.4924 11.6738 16.9026 11.764 17.2795 11.9381C17.6563 12.1123 17.9909 12.3662 18.26 12.6824C18.5543 13.0512 18.8041 13.4535 19.0041 13.8809L19.659 15.1373L19.7373 15.294C21.8116 19.3642 23.8389 23.5073 25.7181 27.5767V27.6033C25.9343 28.042 26.1301 28.5323 26.3463 28.9702C26.4834 29.2977 26.6205 29.5718 26.6988 29.8413C26.9254 30.5206 26.9906 31.2434 26.8892 31.9524L26.8954 31.9485Z" fill="#FF5A5F"/>
</svg>
