<svg width="120" height="60" viewBox="0 0 120 61" fill="none" xmlns="http://www.w3.org/2000/svg">
<path d="M47.5352 22.6493C47.5352 22.1832 47.7203 21.7362 48.0499 21.4066C48.3795 21.077 48.8265 20.8919 49.2926 20.8919C49.7587 20.8919 50.2056 21.077 50.5352 21.4066C50.8648 21.7362 51.0499 22.1832 51.0499 22.6493C51.033 23.104 50.8404 23.5345 50.5127 23.8502C50.1849 24.1659 49.7476 24.3423 49.2926 24.3423C48.8375 24.3423 48.4002 24.1659 48.0724 23.8502C47.7447 23.5345 47.5521 23.104 47.5352 22.6493Z" fill="#273B7D"/>
<path d="M75.2637 34.3696C75.2637 33.3942 76.0493 32.6073 77.0174 32.6073C77.3663 32.6056 77.7078 32.7075 77.9987 32.9001C78.2896 33.0927 78.5168 33.3674 78.6515 33.6892C78.7862 34.0111 78.8224 34.3657 78.7554 34.7081C78.6883 35.0505 78.5212 35.3653 78.2751 35.6126C78.029 35.86 77.715 36.0286 77.3729 36.0973C77.0308 36.166 76.6761 36.1316 76.3535 35.9985C76.031 35.8654 75.7553 35.6395 75.5613 35.3495C75.3672 35.0595 75.2637 34.7185 75.2637 34.3696Z" fill="#499FDD"/>
<path d="M18.7052 33.607C17.1926 33.607 16.1401 32.4053 16.1401 30.687C16.1401 28.9688 17.1925 27.7695 18.7064 27.7695C20.2276 27.7695 21.2911 28.9688 21.2911 30.687C21.2911 32.4322 20.2509 33.607 18.7052 33.607ZM18.7052 25.2032C15.5037 25.2032 13.1797 27.51 13.1797 30.6858C13.1797 33.8616 15.5049 36.1685 18.7052 36.1685C21.9201 36.1685 24.2527 33.8628 24.2527 30.6858C24.2527 27.5088 21.9201 25.2007 18.7064 25.2007L18.7052 25.2032ZM44.1432 30.9599C44.0318 30.7444 43.8909 30.5455 43.7246 30.3688L43.6268 30.2673L43.7296 30.1694C43.8911 29.998 44.0384 29.8138 44.1701 29.6186L46.9849 25.4185H43.5534L41.43 28.7045C41.3101 28.8807 41.0678 28.9688 40.7043 28.9688H40.2209V22.7568C40.2209 21.5146 39.4463 21.3457 38.6104 21.3457H37.1785L37.1822 36.0069H40.2221V31.6086H40.5073C40.8536 31.6086 41.0886 31.6489 41.1976 31.8374L42.8742 35.0022C43.3429 35.8613 43.8091 36.0057 44.6878 36.0057H47.0167L45.2814 33.1371L44.131 30.9587L44.1432 30.9599ZM58.8864 25.175C57.3395 25.175 56.3531 25.8628 55.7999 26.4441L55.6164 26.6301L55.5503 26.3768C55.3888 25.7526 54.8405 25.4124 54.0169 25.4124H52.6548L52.6633 36.002H55.6825V31.1215C55.6825 30.6442 55.7437 30.2306 55.871 29.8524C56.2063 28.7081 57.1437 27.9971 58.3149 27.9971C59.2573 27.9971 59.6243 28.4952 59.6243 29.7802V34.3939C59.6243 35.4905 60.1322 36.0032 61.23 36.0032H62.6667L62.6619 29.2674C62.6619 26.5922 61.356 25.1775 58.8852 25.1775L58.8864 25.175ZM49.3395 25.4173H47.9076L47.9174 36.0069H49.4435L49.4974 36.0094L50.2096 36.0069H50.917V36.0032H50.9219L50.928 27.0266C50.928 25.9436 50.4103 25.4185 49.3395 25.4185V25.4173ZM30.5602 33.6058C29.0476 33.6058 27.9939 32.404 27.9939 30.6858C27.9939 28.9676 29.0463 27.7683 30.5614 27.7683C32.0765 27.7683 33.1461 28.9676 33.1461 30.6858C33.1461 32.431 32.1059 33.6058 30.5614 33.6058H30.5602ZM30.5602 25.2019C27.3563 25.2019 25.0311 27.5088 25.0311 30.6846C25.0311 33.8604 27.3563 36.1672 30.5627 36.1672C33.769 36.1672 36.1101 33.8616 36.1101 30.6846C36.1101 27.5076 33.785 25.1995 30.5627 25.1995" fill="#273B7D"/>
<path d="M95.2603 33.607C93.7477 33.607 92.6927 32.4053 92.6927 30.687C92.6927 28.9688 93.7477 27.7695 95.2603 27.7695C96.7803 27.7695 97.8463 28.9688 97.8463 30.687C97.8463 32.4322 96.806 33.607 95.2603 33.607ZM95.2603 25.2032C92.0564 25.2032 89.7324 27.51 89.7324 30.6858C89.7324 33.8616 92.0576 36.1685 95.2603 36.1685C98.4716 36.1685 100.808 33.8628 100.808 30.6858C100.808 27.5088 98.4826 25.2007 95.2603 25.2007" fill="#499FDD"/>
<path d="M69.0305 33.1407C67.3784 33.1407 66.7909 31.7015 66.7909 30.3505C66.7909 29.7557 66.9415 27.8172 68.8714 27.8172C69.8297 27.8172 71.1061 28.0913 71.1061 30.4484C71.1061 32.672 69.9765 33.1383 69.0292 33.1383L69.0305 33.1407ZM72.675 25.3916C72.1022 25.3916 71.6617 25.6205 71.4512 26.0378L71.368 26.1993L71.2285 26.0769C70.7414 25.6559 69.8676 25.1554 68.4504 25.1554C65.6271 25.1554 63.7266 27.2763 63.7266 30.43C63.7266 33.5838 65.6932 35.7854 68.5067 35.7854C69.4674 35.7854 70.2274 35.5602 70.8295 35.105L71.0743 34.9299V35.2237C71.0743 36.6384 70.1601 37.4192 68.5018 37.4192C67.8083 37.4109 67.1213 37.2842 66.4703 37.0447C65.8315 36.8513 65.4545 37.0116 65.1975 37.6541L64.9577 38.2465L64.6187 39.1129L64.8267 39.2231C65.889 39.786 67.2706 40.1226 68.5189 40.1226C71.0889 40.1226 74.0922 38.807 74.0922 35.105L74.1044 25.3916H72.675Z" fill="#273B7D"/>
<path d="M7.45283 33.4859L4.99543 33.4835V30.5463C4.99543 29.9173 5.24019 29.5918 5.77622 29.5159H7.45283C8.64849 29.5159 9.41096 30.2698 9.41096 31.4899C9.40974 32.7431 8.65583 33.4847 7.45283 33.4847V33.4859ZM4.99543 25.5606V24.7871C4.99543 24.1103 5.28181 23.7885 5.90963 23.7469H7.16772C8.24467 23.7469 8.881 24.3918 8.881 25.4724C8.881 26.2948 8.43797 27.2555 7.1958 27.2555H4.98445L4.99543 25.5606ZM10.5907 28.4928L10.1464 28.2431L10.5344 27.9127C10.9872 27.5248 11.7411 26.6522 11.7411 25.1469C11.7411 22.8413 9.95428 21.3531 7.18848 21.3531H3.67131C3.27555 21.3675 2.90045 21.5337 2.62386 21.8171C2.34726 22.1005 2.19031 22.4795 2.18555 22.8755V35.958H7.25212C10.3275 35.958 12.3126 34.2838 12.3126 31.6906C12.3126 30.2955 11.6713 29.101 10.5931 28.494" fill="#273B7D"/>
<path d="M114.293 25.2154C113.67 25.2177 113.055 25.36 112.494 25.6318C111.933 25.9036 111.441 26.2979 111.052 26.7856L110.835 27.0622L110.663 26.7525C110.103 25.7331 109.141 25.2154 107.803 25.2154C106.4 25.2154 105.459 25.9987 105.022 26.4637L104.735 26.7733L104.613 26.3658C104.454 25.7784 103.931 25.4565 103.141 25.4565H101.871L101.859 36.0057H104.741V31.3492C104.743 30.9333 104.794 30.5192 104.894 30.1156C105.17 28.9897 105.926 27.7781 107.198 27.9005C107.981 27.9763 108.365 28.5821 108.365 29.7521V36.0057H111.268V31.3492C111.257 30.9187 111.312 30.4891 111.431 30.0752C111.675 29.0007 112.454 27.8992 113.68 27.8992C114.569 27.8992 114.896 28.401 114.896 29.7521V34.4637C114.896 35.5285 115.371 36.0057 116.438 36.0057H117.794L117.797 29.2711C117.797 26.5788 116.612 25.2154 114.282 25.2154H114.293ZM88.0511 32.3429C88.0425 32.3551 86.8028 33.6609 85.169 33.6609C83.6809 33.6609 82.178 32.748 82.178 30.7116C82.178 28.9517 83.3431 27.7218 85.0124 27.7218C85.5533 27.7218 86.1701 27.9152 86.2668 28.2419L86.279 28.297C86.3407 28.5219 86.4748 28.7203 86.6607 28.8612C86.8466 29.0022 87.0738 29.0778 87.307 29.0766L88.898 29.079V27.6985C88.898 25.8775 86.5813 25.2167 85.0234 25.2167C81.6897 25.2167 79.2715 27.537 79.2715 30.7336C79.2715 33.9302 81.6628 36.2456 84.9622 36.2456C87.8235 36.2456 89.3679 34.3646 89.3948 34.3463L89.4781 34.2435L88.2273 32.1691L88.0621 32.3441" fill="#499FDD"/>
</svg>
