<svg width="165" height="48" fill="none" xmlns="http://www.w3.org/2000/svg"><path fill-rule="evenodd" clip-rule="evenodd" d="M0 41.6V6.4C0 2.865 2.92 0 6.522 0h151.956C162.08 0 165 2.865 165 6.4v35.2c0 3.535-2.92 6.4-6.522 6.4H6.522C2.92 48 0 45.135 0 41.6Zm.978 0V6.4C.978 3.396 3.46.96 6.522.96h151.956c3.062 0 5.544 2.436 5.544 5.44v35.2c0 3.005-2.482 5.44-5.544 5.44H6.522C3.46 47.04.978 44.605.978 41.6Z" fill="#F0F0F0"/><path d="M50.895 24.977c-.017-2.813 1.282-4.933 3.905-6.496-1.467-2.063-3.686-3.197-6.612-3.416-2.77-.214-5.8 1.584-6.91 1.584-1.173 0-3.855-1.51-5.965-1.51-4.355.066-8.983 3.408-8.983 10.206 0 2.009.374 4.083 1.122 6.22 1 2.813 4.607 9.706 8.37 9.595 1.967-.046 3.358-1.37 5.918-1.37 2.484 0 3.77 1.37 5.965 1.37 3.796-.054 7.057-6.32 8.007-9.141-5.09-2.355-4.817-6.897-4.817-7.041Zm-4.418-12.58c2.131-2.484 1.938-4.745 1.875-5.557-1.883.107-4.06 1.258-5.3 2.673-1.367 1.518-2.17 3.395-1.997 5.51 2.034.154 3.892-.874 5.422-2.627ZM73.855 28.735h-2.16l-1.182-3.663h-4.11l-1.127 3.663h-2.102l4.072-12.472h2.516l4.093 12.472Zm-3.699-5.2-1.07-3.257c-.112-.333-.324-1.116-.637-2.35h-.038a89.14 89.14 0 0 1-.6 2.35l-1.051 3.257h3.396ZM84.328 24.128c0 1.53-.42 2.738-1.258 3.626-.751.79-1.684 1.184-2.797 1.184-1.201 0-2.065-.425-2.59-1.276h-.038V32.4h-2.027v-9.698c0-.962-.026-1.949-.075-2.96h1.782l.114 1.425h.037c.676-1.074 1.702-1.61 3.079-1.61 1.076 0 1.974.419 2.693 1.257.72.84 1.08 1.944 1.08 3.314Zm-2.065.073c0-.876-.2-1.597-.6-2.165-.439-.593-1.028-.889-1.765-.889-.5 0-.955.165-1.36.49a2.27 2.27 0 0 0-.798 1.287 2.59 2.59 0 0 0-.094.61v1.499c0 .654.203 1.206.61 1.657.407.45.936.676 1.586.676.763 0 1.357-.29 1.782-.87.426-.58.639-1.345.639-2.295ZM94.821 24.128c0 1.53-.42 2.738-1.258 3.626-.75.79-1.683 1.184-2.796 1.184-1.202 0-2.065-.425-2.59-1.276h-.038V32.4h-2.027v-9.698c0-.962-.025-1.949-.075-2.96h1.783l.113 1.425h.038c.675-1.074 1.7-1.61 3.078-1.61 1.075 0 1.973.419 2.694 1.257.718.84 1.078 1.944 1.078 3.314Zm-2.064.073c0-.876-.201-1.597-.602-2.165-.438-.593-1.025-.889-1.764-.889-.5 0-.954.165-1.361.49a2.268 2.268 0 0 0-.797 1.287c-.062.248-.094.45-.094.61v1.499c0 .654.204 1.206.609 1.657.406.45.935.676 1.587.676.764 0 1.358-.29 1.783-.87.425-.58.639-1.345.639-2.295ZM106.552 25.238c0 1.06-.374 1.924-1.124 2.59-.824.729-1.972 1.092-3.446 1.092-1.361 0-2.453-.259-3.279-.777l.47-1.665c.89.53 1.866.796 2.93.796.763 0 1.357-.17 1.784-.51.425-.339.637-.794.637-1.362 0-.506-.175-.933-.526-1.279-.349-.345-.932-.667-1.745-.964-2.215-.814-3.322-2.008-3.322-3.576 0-1.026.388-1.866 1.165-2.52.774-.656 1.806-.983 3.097-.983 1.151 0 2.108.198 2.871.592l-.507 1.63c-.713-.383-1.519-.574-2.421-.574-.713 0-1.27.173-1.669.518a1.47 1.47 0 0 0-.507 1.13c0 .492.193.9.581 1.22.337.297.951.617 1.84.963 1.089.432 1.888.937 2.402 1.517.513.577.769 1.3.769 2.162ZM113.253 21.241h-2.234v4.367c0 1.11.393 1.666 1.183 1.666.362 0 .662-.031.9-.093l.056 1.517c-.4.147-.925.221-1.576.221-.801 0-1.426-.24-1.878-.721-.45-.482-.676-1.29-.676-2.425V21.24h-1.331v-1.5h1.331v-1.647l1.991-.592v2.239h2.234v1.502ZM123.334 24.165c0 1.382-.402 2.517-1.202 3.405-.839.913-1.954 1.369-3.342 1.369-1.339 0-2.405-.438-3.199-1.313-.795-.876-1.193-1.98-1.193-3.312 0-1.394.409-2.536 1.229-3.423.819-.889 1.924-1.333 3.313-1.333 1.338 0 2.415.438 3.228 1.314.778.85 1.166 1.948 1.166 3.293Zm-2.103.064c0-.83-.18-1.54-.544-2.134-.425-.718-1.032-1.076-1.82-1.076-.814 0-1.433.36-1.858 1.076-.364.594-.544 1.317-.544 2.172 0 .83.18 1.54.544 2.133.438.718 1.05 1.076 1.84 1.076.774 0 1.381-.366 1.82-1.095.373-.604.562-1.323.562-2.152ZM129.922 21.499a3.572 3.572 0 0 0-.639-.056c-.713 0-1.264.265-1.653.797-.337.469-.506 1.06-.506 1.776v4.719h-2.026l.019-6.161c0-1.037-.026-1.98-.076-2.832h1.765l.074 1.721h.057a3.07 3.07 0 0 1 1.013-1.425 2.472 2.472 0 0 1 1.465-.481c.187 0 .356.013.507.036V21.5ZM138.984 23.813c0 .358-.023.66-.074.906h-6.08c.023.889.317 1.568.882 2.037.512.419 1.175.629 1.989.629.9 0 1.721-.142 2.46-.426l.317 1.387c-.863.372-1.882.556-3.058.556-1.414 0-2.525-.41-3.333-1.23-.806-.82-1.21-1.922-1.21-3.303 0-1.357.376-2.486 1.128-3.387.787-.961 1.85-1.442 3.189-1.442 1.315 0 2.31.48 2.986 1.442.535.764.804 1.709.804 2.83Zm-1.932-.518c.013-.593-.119-1.105-.394-1.537-.351-.555-.89-.833-1.615-.833-.663 0-1.202.271-1.613.815-.338.432-.538.95-.6 1.554h4.222Z" fill="#F0F0F0"/></svg>