<svg width="120" height="60" viewBox="0 0 120 60" fill="none" xmlns="http://www.w3.org/2000/svg">
<path fill-rule="evenodd" clip-rule="evenodd" d="M63.0421 21.3582C63.0421 21.806 62.9093 22.2437 62.6605 22.616C62.4117 22.9883 62.0581 23.2785 61.6445 23.4498C61.2308 23.6212 60.7755 23.666 60.3364 23.5787C59.8972 23.4913 59.4938 23.2757 59.1772 22.9591C58.8605 22.6424 58.6449 22.239 58.5576 21.7999C58.4702 21.3607 58.515 20.9055 58.6864 20.4918C58.8577 20.0781 59.1479 19.7245 59.5202 19.4757C59.8926 19.227 60.3303 19.0942 60.7781 19.0942C61.0756 19.0933 61.3704 19.1512 61.6455 19.2646C61.9206 19.3781 62.1706 19.5448 62.381 19.7552C62.5914 19.9656 62.7582 20.2156 62.8716 20.4907C62.9851 20.7658 63.043 21.0606 63.0421 21.3582ZM53.7021 25.9082V26.4682C53.2748 26.0059 52.7523 25.6418 52.1707 25.4009C51.589 25.1601 50.9621 25.0483 50.3331 25.0732C49.4317 25.0635 48.5377 25.2365 47.7051 25.5819C46.8725 25.9273 46.1185 26.4378 45.4887 27.0827C44.8588 27.7276 44.3662 28.4934 44.0406 29.3339C43.715 30.1745 43.5631 31.0723 43.5941 31.9732C43.5621 32.874 43.7131 33.772 44.0379 34.6129C44.3626 35.4538 44.8545 36.2202 45.4836 36.8657C46.1128 37.5112 46.8663 38.0226 47.6986 38.3688C48.5308 38.715 49.4247 38.889 50.3261 38.8802C50.9588 38.9093 51.5899 38.796 52.173 38.5487C52.7561 38.3013 53.2762 37.9263 53.6951 37.4512V38.0442C53.6941 38.1081 53.706 38.1716 53.7301 38.2309C53.7541 38.2902 53.7898 38.344 53.835 38.3892C53.8802 38.4345 53.9341 38.4701 53.9933 38.4942C54.0526 38.5182 54.1161 38.5301 54.1801 38.5292H57.0041V25.4002H54.2041C54.0765 25.4037 53.9552 25.4559 53.865 25.5461C53.7748 25.6363 53.7226 25.7577 53.7191 25.8852L53.7021 25.9082ZM53.7021 34.3042C53.3787 34.7496 52.9539 35.1116 52.4628 35.3601C51.9717 35.6086 51.4284 35.7365 50.8781 35.7332C48.6481 35.7332 46.9431 34.3382 46.9431 31.9732C46.9431 29.6082 48.6481 28.2132 50.8781 28.2132C51.4271 28.2173 51.9678 28.3485 52.4577 28.5964C52.9476 28.8443 53.3735 29.2022 53.7021 29.6422V34.3122V34.3042ZM59.1021 25.4222H62.4721V38.5222H59.1021V25.4002V25.4222ZM109.069 25.0722C108.44 25.0473 107.813 25.1591 107.231 25.3999C106.65 25.6408 106.127 26.0049 105.7 26.4672V19.1152H102.33V38.5202H105.153C105.281 38.5167 105.402 38.4644 105.492 38.3742C105.582 38.284 105.635 38.1627 105.638 38.0352V37.4422C106.06 37.9119 106.579 38.2833 107.16 38.5302C107.741 38.7771 108.369 38.8935 109 38.8712C109.901 38.8781 110.793 38.7031 111.625 38.3567C112.456 38.0104 113.209 37.4998 113.838 36.8555C114.467 36.2112 114.96 35.4465 115.287 34.6072C115.613 33.7679 115.767 32.8713 115.739 31.9712C115.768 31.0708 115.615 30.1739 115.288 29.3342C114.962 28.4946 114.469 27.7295 113.84 27.0851C113.211 26.4406 112.457 25.93 111.626 25.5839C110.794 25.2378 109.901 25.0634 109 25.0712L109.069 25.0722ZM108.5 35.7002C107.949 35.708 107.404 35.582 106.912 35.3332C106.42 35.0843 105.996 34.7199 105.676 34.2712V29.6002C106.016 29.172 106.444 28.8226 106.931 28.5759C107.419 28.3292 107.954 28.1911 108.5 28.1712C110.73 28.1712 112.435 29.5662 112.435 31.9312C112.435 34.2962 110.73 35.6912 108.5 35.6912V35.7002ZM100.622 30.7542V38.5572H97.2521V31.1442C97.2521 28.9812 96.5781 28.1122 94.6721 28.1122C94.1585 28.1301 93.6542 28.2536 93.1905 28.475C92.7268 28.6964 92.3138 29.011 91.9771 29.3992V38.5232H88.6071V25.4002H91.2551C91.3826 25.4037 91.5039 25.4559 91.5941 25.5461C91.6843 25.6363 91.7365 25.7577 91.7401 25.8852V26.4452C92.2051 25.9822 92.7602 25.6195 93.3709 25.3796C93.9817 25.1396 94.6352 25.0275 95.2911 25.0502C96.6237 25.0009 97.9274 25.4473 98.9501 26.3032C100.136 27.2802 100.587 28.5332 100.587 30.7302L100.622 30.7542ZM80.5221 25.0742C79.893 25.0493 79.2661 25.1611 78.6845 25.4019C78.1028 25.6428 77.5803 26.0069 77.1531 26.4692V19.1172H73.7831V38.5202H76.6071C76.7346 38.5167 76.8559 38.4644 76.9461 38.3742C77.0363 38.284 77.0885 38.1627 77.0921 38.0352V37.4422C77.5145 37.9128 78.0353 38.2848 78.6175 38.5317C79.1997 38.7787 79.8291 38.8946 80.4611 38.8712C81.3616 38.8781 82.2543 38.7031 83.0857 38.3567C83.917 38.0104 84.6698 37.4998 85.2991 36.8555C85.9284 36.2112 86.4211 35.4465 86.7477 34.6072C87.0744 33.7679 87.2282 32.8713 87.2001 31.9712C87.2349 31.0693 87.0857 30.1698 86.7615 29.3275C86.4372 28.4853 85.9448 27.7179 85.3142 27.0722C84.6836 26.4265 83.928 25.9161 83.0936 25.5721C82.2592 25.228 81.3635 25.0576 80.4611 25.0712L80.5221 25.0742ZM79.9601 35.7002C79.4089 35.708 78.8641 35.582 78.3722 35.3332C77.8804 35.0843 77.4562 34.7199 77.1361 34.2712V29.6002C77.4755 29.172 77.9038 28.8226 78.3913 28.5759C78.8788 28.3292 79.414 28.1911 79.9601 28.1712C82.1901 28.1712 83.8951 29.5662 83.8951 31.9312C83.8951 34.2962 82.1901 35.6912 79.9601 35.6912V35.7002ZM70.8801 25.0702C71.3978 25.0538 71.9153 25.1127 72.4161 25.2452V28.3452C72.4161 28.3452 69.6161 27.4222 67.8881 29.3892V38.5542H64.5181V25.4002H67.3421C67.4696 25.4037 67.5909 25.4559 67.6811 25.5461C67.7713 25.6363 67.8235 25.7577 67.8271 25.8852V26.4452C68.6261 25.6151 69.7088 25.1169 70.8591 25.0502L70.8801 25.0702ZM36.1401 37.3352L35.6141 36.0822L34.8121 34.3022L34.7781 34.2682C32.3409 28.9572 29.7748 23.7063 27.0821 18.5202L26.9741 18.3202L26.1441 16.6502C25.8008 15.9664 25.3804 15.3243 24.8911 14.7362C24.3586 14.0652 23.6799 13.5246 22.9068 13.1556C22.1338 12.7867 21.2866 12.5991 20.4301 12.6072C19.5793 12.61 18.7394 12.7984 17.9689 13.1592C17.1985 13.52 16.516 14.0445 15.9691 14.6962C15.4915 15.2929 15.0719 15.9338 14.7161 16.6102L13.7731 18.4562C11.0781 23.6862 8.47606 28.9762 6.07106 34.2042L6.03706 34.2712C5.83706 34.8442 5.55206 35.4312 5.26906 36.0572C5.09372 36.4392 4.91839 36.8569 4.74306 37.3102C4.29849 38.5105 4.15496 39.8015 4.32506 41.0702C4.51257 42.3442 5.02874 43.5474 5.82272 44.5613C6.61671 45.5752 7.66111 46.3647 8.85306 46.8522C9.74681 47.2279 10.7076 47.4181 11.6771 47.4112C11.9791 47.4061 12.2806 47.3837 12.5801 47.3442C13.8094 47.1874 14.9944 46.784 16.0641 46.1582C17.6888 45.1892 19.1471 43.9653 20.3831 42.5332C21.6268 43.9574 23.0838 45.1802 24.7021 46.1582C25.7716 46.7842 26.9567 47.1876 28.1861 47.3442C28.4855 47.3837 28.787 47.4061 29.0891 47.4112C30.0588 47.4213 31.0203 47.231 31.9131 46.8522C33.105 46.3647 34.1494 45.5752 34.9434 44.5613C35.7374 43.5474 36.2535 42.3442 36.4411 41.0702C36.6977 39.8237 36.5876 38.5294 36.1241 37.3442L36.1401 37.3352ZM20.4321 39.1482C18.5521 36.7762 17.3321 34.5522 16.9141 32.6652C16.7433 31.9708 16.7067 31.2503 16.8061 30.5422C16.875 30.0177 17.0665 29.5169 17.3651 29.0802C17.7142 28.5957 18.1755 28.203 18.7094 27.9355C19.2433 27.6681 19.834 27.5338 20.4311 27.5442C21.0295 27.5212 21.6241 27.6493 22.1599 27.9167C22.6958 28.1841 23.1556 28.5822 23.4971 29.0742C23.7956 29.5109 23.9871 30.0117 24.0561 30.5362C24.1559 31.2443 24.1193 31.9649 23.9481 32.6592C23.5301 34.5052 22.3111 36.7022 20.4301 39.1422L20.4321 39.1482ZM34.3341 40.7852C34.203 41.6772 33.8412 42.5195 33.2845 43.2286C32.7278 43.9378 31.9955 44.4891 31.1601 44.8282C30.3269 45.1806 29.4171 45.3128 28.5181 45.2122C27.5827 45.0965 26.6812 44.7891 25.8701 44.3092C24.3748 43.4064 23.0347 42.2689 21.9011 40.9402C24.1991 38.1162 25.5941 35.5402 26.1191 33.2382C26.3457 32.267 26.4049 31.2643 26.2941 30.2732C26.1646 29.421 25.8421 28.6096 25.3511 27.9012C24.7989 27.1132 24.0615 26.473 23.2037 26.0371C22.3459 25.6011 21.3941 25.3827 20.4321 25.4012C19.4749 25.389 18.529 25.6073 17.674 26.0377C16.8191 26.4682 16.0803 27.0981 15.5201 27.8742C15.029 28.5826 14.7065 29.394 14.5771 30.2462C14.4298 31.236 14.4894 32.2456 14.7521 33.2112C15.2781 35.5092 16.7061 38.1232 18.9701 40.9472C17.8444 42.2838 16.5028 43.4226 15.0011 44.3162C14.1899 44.8065 13.2858 45.1231 12.3461 45.2462C11.4481 45.3459 10.5393 45.2258 9.69806 44.8962C8.86266 44.5571 8.13034 44.0058 7.57362 43.2966C7.01689 42.5875 6.6551 41.7452 6.52406 40.8532C6.4139 39.9424 6.52258 39.0185 6.84106 38.1582C6.94906 37.8082 7.11706 37.4842 7.29106 37.0462C7.53406 36.4862 7.81706 35.8942 8.09306 35.3012L8.12706 35.2342C10.5331 30.0342 13.1071 24.7492 15.7971 19.5872L15.8971 19.3372L16.7331 17.7332C17.0043 17.1803 17.3414 16.6622 17.7371 16.1902C18.0806 15.7866 18.5076 15.4624 18.9888 15.2401C19.4699 15.0178 19.9936 14.9026 20.5236 14.9026C21.0536 14.9026 21.5772 15.0178 22.0584 15.2401C22.5395 15.4624 22.9666 15.7866 23.3101 16.1902C23.6858 16.661 24.0047 17.1746 24.2601 17.7202L25.0961 19.3242L25.1961 19.5242C27.8441 24.7202 30.4321 30.0092 32.8311 35.2042V35.2382C33.1071 35.7982 33.3571 36.4242 33.6331 36.9832C33.8081 37.4012 33.9831 37.7512 34.0831 38.0952C34.3724 38.9624 34.4556 39.8852 34.3261 40.7902L34.3341 40.7852Z" fill="#FF5A5F"/>
</svg>
