<svg width="302" height="96" fill="none" xmlns="http://www.w3.org/2000/svg"><path d="M70.194 4.608H58.098V2.4h26.64v2.208H72.642V36h-2.448V4.608ZM114.137 36l-8.016-11.232c-1.184.16-2.272.24-3.264.24h-9.6V36H90.81V2.4h12.048c4.224 0 7.536 1.008 9.936 3.024 2.4 1.984 3.6 4.752 3.6 8.304 0 2.656-.688 4.896-2.064 6.72-1.344 1.792-3.28 3.056-5.808 3.792l8.4 11.76h-2.784Zm-11.28-13.152c3.584 0 6.32-.784 8.208-2.352 1.888-1.6 2.832-3.856 2.832-6.768s-.944-5.152-2.832-6.72c-1.888-1.6-4.624-2.4-8.208-2.4h-9.6v18.24h9.6Zm43.283 3.696h-19.488L122.38 36h-2.64l15.456-33.6h2.448L153.1 36h-2.64l-4.32-9.456Zm-.912-2.064-8.832-19.392-8.784 19.392h17.616ZM184.297 2.4 169.321 36h-2.448L151.897 2.4h2.688l13.584 30.432L181.753 2.4h2.544Zm28.602 31.392V36h-23.184V2.4h22.464v2.208h-20.016v13.248h17.904v2.16h-17.904v13.776h20.736ZM221.825 2.4h2.448v31.392h19.344V36h-21.792V2.4ZM112.578 85.544H93.089L88.817 95h-2.64l15.457-33.6h2.448L119.538 95h-2.64l-4.32-9.456Zm-.912-2.064-8.832-19.392-8.785 19.392h17.617Zm33.939-5.808c2.4.448 4.224 1.392 5.472 2.832 1.28 1.44 1.92 3.312 1.92 5.616 0 2.848-1.04 5.04-3.12 6.576-2.08 1.536-5.168 2.304-9.264 2.304h-14.976V61.4h14.016c3.648 0 6.48.752 8.496 2.256 2.048 1.472 3.072 3.584 3.072 6.336 0 1.92-.512 3.536-1.536 4.848-.992 1.312-2.352 2.256-4.08 2.832Zm-17.52-14.16v13.392h11.472c2.944 0 5.2-.56 6.768-1.68 1.6-1.152 2.4-2.832 2.4-5.04 0-2.176-.8-3.824-2.4-4.944-1.568-1.152-3.824-1.728-6.768-1.728h-11.472Zm12.528 29.376c3.264 0 5.728-.56 7.392-1.68 1.696-1.152 2.544-2.912 2.544-5.28 0-2.368-.848-4.112-2.544-5.232-1.664-1.12-4.128-1.68-7.392-1.68h-12.528v13.872h12.528ZM161.731 61.4h2.448v31.392h19.344V95h-21.792V61.4Zm51.262 31.392V95h-23.184V61.4h22.464v2.208h-20.016v13.248h17.904v2.16h-17.904v13.776h20.736Z" fill="#F1F1F1"/></svg>