<svg width="40" height="40" viewBox="0 0 40 40" fill="none" xmlns="http://www.w3.org/2000/svg">
<g clip-path="url(#clip0)">
<path d="M10.0954 28.6717L10.2938 28.4733L10.1091 28.2621C7.42199 25.1889 5.95422 21.2952 5.95422 17.1737C5.95422 12.6661 7.70909 8.4297 10.8965 5.24229L10.6844 5.03016L10.8965 5.24229C14.0839 2.0548 18.3203 0.3 22.828 0.3C27.3357 0.3 31.5722 2.0548 34.7597 5.24229C37.9471 8.4297 39.7018 12.6661 39.7018 17.1738C39.7018 21.6815 37.947 25.918 34.7596 29.1054C31.5721 32.2929 27.3358 34.0477 22.828 34.0477C18.7066 34.0477 14.8129 32.5798 11.7397 29.8928L11.5285 29.7081L11.3301 29.9065L1.79232 39.4442L1.79225 39.4443C1.62183 39.6148 1.39886 39.7 1.175 39.7C0.951208 39.7 0.728235 39.6148 0.557643 39.4442C0.216697 39.1032 0.21674 38.5504 0.557678 38.2095L10.0954 28.6717ZM33.5249 6.47709L33.3128 6.68922L33.5249 6.47708C30.5759 3.52815 26.7007 2.05328 22.8281 2.05328C18.9546 2.05328 15.0809 3.52744 12.1313 6.47709C6.2329 12.3755 6.2329 21.9722 12.1313 27.8706C18.0298 33.7691 27.6264 33.7691 33.5249 27.8706C39.4232 21.9722 39.4232 12.3754 33.5249 6.47709Z" fill="#737373" stroke="#EBEBEB" stroke-width="0.6"/>
</g>
<defs>
<clipPath id="clip0">
<rect width="40" height="40" fill="white"/>
</clipPath>
</defs>
</svg>
