<svg width="24" height="24" viewBox="0 0 24 24" fill="none" xmlns="http://www.w3.org/2000/svg">
<path d="M12.0377 21.0002C7.0877 21.0002 3.0752 16.9877 3.0752 12.0377C3.0752 7.08769 7.0877 3.0752 12.0377 3.0752C16.9877 3.0752 21.0002 7.08769 21.0002 12.0377C21.0002 16.9877 16.9877 21.0002 12.0377 21.0002ZM12.0377 4.05019C7.6502 4.05019 4.0502 7.65019 4.0502 12.0377C4.0502 16.4252 7.6502 20.0252 12.0377 20.0252C16.4252 20.0252 20.0252 16.4252 20.0252 12.0377C20.0252 7.61269 16.4252 4.05019 12.0377 4.05019Z" fill="black"/>
<path d="M9.26264 9.1875C9.41264 8.775 9.60015 8.4375 9.86265 8.175C10.1251 7.9125 10.4626 7.6875 10.8376 7.5375C11.2126 7.3875 11.6626 7.3125 12.1501 7.3125C12.5251 7.3125 12.9001 7.3875 13.2376 7.5C13.5751 7.6125 13.8751 7.8 14.1376 7.9875C14.4001 8.175 14.5876 8.475 14.7376 8.775C14.8876 9.075 14.9626 9.45 14.9626 9.8625C14.9626 10.3875 14.8501 10.8 14.6251 11.175C14.4001 11.55 14.1001 11.8875 13.7626 12.225C13.4626 12.525 13.2376 12.75 13.0876 12.9C12.9001 13.05 12.7876 13.2375 12.7126 13.3875C12.6376 13.5375 12.5626 13.725 12.5626 13.95C12.5251 14.175 12.5251 14.325 12.5251 14.7375H11.6626C11.6626 14.325 11.6626 14.1375 11.7376 13.875C11.7751 13.575 11.8876 13.35 12.0001 13.0875C12.1126 12.8625 12.3001 12.6375 12.4876 12.4125C12.7126 12.1875 12.9376 11.9625 13.2376 11.7C13.5001 11.475 13.7251 11.2125 13.8751 10.9125C14.0626 10.6125 14.1376 10.275 14.1376 9.9375C14.1376 9.675 14.1001 9.4125 13.9876 9.1875C13.8751 8.9625 13.7251 8.775 13.5751 8.5875C13.4251 8.4 13.2001 8.2875 12.9376 8.2125C12.7126 8.1375 12.4501 8.0625 12.1876 8.0625C11.8126 8.0625 11.4751 8.1375 11.2126 8.25C10.9126 8.3625 10.6876 8.55 10.5001 8.775C10.3126 9 10.1626 9.2625 10.0876 9.5625C10.0126 9.8625 9.93765 10.125 9.97515 10.4625H9.11265C9.07515 9.9375 9.11264 9.6 9.26264 9.1875ZM11.5126 15.75H12.5626V16.8H11.5126V15.75Z" fill="black"/>
</svg>
