<svg width="165" height="48" fill="none" xmlns="http://www.w3.org/2000/svg"><path fill-rule="evenodd" clip-rule="evenodd" d="M0 41.6V6.4C0 2.865 2.92 0 6.522 0h151.956C162.08 0 165 2.865 165 6.4v35.2c0 3.535-2.92 6.4-6.522 6.4H6.522C2.92 48 0 45.135 0 41.6Zm.978 0V6.4C.978 3.396 3.46.96 6.522.96h151.956c3.062 0 5.544 2.436 5.544 5.44v35.2c0 3.005-2.482 5.44-5.544 5.44H6.522C3.46 47.04.978 44.605.978 41.6Z" fill="#F0F0F0"/><path d="M81.894 19.22c-2.937 0-5.363 2.25-5.363 5.335 0 3.06 2.401 5.336 5.363 5.336 2.962 0 5.362-2.25 5.362-5.336 0-3.085-2.4-5.336-5.362-5.336Zm0 8.548c-1.61 0-3.013-1.341-3.013-3.237 0-1.922 1.405-3.236 3.013-3.236 1.608 0 3.012 1.314 3.012 3.236 0 1.896-1.404 3.237-3.012 3.237Zm-11.67-8.549c-2.962 0-5.362 2.25-5.362 5.336 0 3.06 2.4 5.336 5.362 5.336s5.363-2.25 5.363-5.336c0-3.085-2.4-5.336-5.363-5.336Zm0 8.549c-1.609 0-3.012-1.341-3.012-3.237 0-1.922 1.404-3.236 3.012-3.236 1.61 0 3.013 1.314 3.013 3.236 0 1.896-1.38 3.237-3.013 3.237ZM56.36 20.863v2.25h5.413c-.154 1.265-.587 2.2-1.226 2.833-.791.784-2.017 1.644-4.187 1.644-3.346 0-5.924-2.68-5.924-5.993s2.58-6.044 5.924-6.044c1.812 0 3.115.708 4.085 1.619l1.608-1.594c-1.353-1.29-3.166-2.275-5.693-2.275-4.572 0-8.402 3.716-8.402 8.243 0 4.528 3.83 8.244 8.402 8.244 2.476 0 4.315-.808 5.796-2.327 1.507-1.492 1.966-3.591 1.966-5.285 0-.53-.05-1.012-.128-1.416l-7.634.101Zm56.738 1.745c-.434-1.189-1.812-3.389-4.571-3.389-2.758 0-5.03 2.15-5.03 5.336 0 2.984 2.272 5.336 5.286 5.336 2.451 0 3.856-1.492 4.443-2.352l-1.813-1.214c-.613.886-1.43 1.466-2.63 1.466-1.201 0-2.043-.53-2.58-1.618l7.124-2.959-.229-.606Zm-7.252 1.796c-.051-2.049 1.61-3.11 2.783-3.11.945 0 1.711.455 1.992 1.138l-4.775 1.972Zm-5.796 5.133h2.349V13.91h-2.349v15.628Zm-3.83-9.129h-.076c-.536-.633-1.532-1.189-2.81-1.189-2.68 0-5.106 2.353-5.106 5.336 0 2.984 2.45 5.31 5.107 5.31 1.276 0 2.272-.555 2.809-1.213h.076v.758c0 2.05-1.098 3.136-2.86 3.136-1.43 0-2.324-1.037-2.681-1.897l-2.042.86c.586 1.417 2.145 3.161 4.723 3.161 2.758 0 5.082-1.618 5.082-5.538v-9.584h-2.222v.86Zm-2.68 7.36c-1.61 0-2.963-1.341-2.963-3.212 0-1.87 1.354-3.236 2.962-3.236 1.584 0 2.86 1.366 2.86 3.236 0 1.846-1.277 3.212-2.86 3.212Zm30.513-13.859h-5.617v15.628h2.349V23.62h3.268c2.605 0 5.158-1.872 5.158-4.855 0-2.983-2.553-4.855-5.158-4.855Zm.076 7.537h-3.32v-5.362h3.32c1.736 0 2.758 1.441 2.758 2.68-.025 1.214-1.02 2.682-2.758 2.682Zm14.454-2.252c-1.685 0-3.447.734-4.162 2.403l2.069.86c.459-.86 1.276-1.138 2.145-1.138 1.226 0 2.451.733 2.477 2.022v.152c-.435-.252-1.328-.607-2.452-.607-2.246 0-4.52 1.24-4.52 3.516 0 2.099 1.839 3.439 3.882 3.439 1.583 0 2.451-.709 2.987-1.543h.076v1.214h2.272v-5.994c-.025-2.756-2.093-4.324-4.774-4.324Zm-.281 8.548c-.766 0-1.839-.38-1.839-1.314 0-1.214 1.327-1.67 2.477-1.67 1.021 0 1.506.229 2.145.532-.179 1.441-1.43 2.452-2.783 2.452Zm13.253-8.193-2.682 6.752h-.076l-2.783-6.752h-2.527l4.187 9.457-2.375 5.286h2.451l6.409-14.743h-2.605.001Zm-21.041 9.988h2.35V13.91h-2.35v15.628Z" fill="#F0F0F0"/><path fill-rule="evenodd" clip-rule="evenodd" d="m33.536 28.9-4.882-4.837 4.878-4.861a825.477 825.477 0 0 0 6.673 3.622c1.66.885.817 2.023 0 2.453-.177.087-1.65.89-3.835 2.08h-.002l-1.108.604-1.724.94Zm-.889.484-4.68-4.637-15.635 15.582c.188-.056.388-.141.602-.257l1.12-.607.032-.017.003-.002c3.218-1.741 12.054-6.524 18.558-10.062Zm-21.593 10.85c-.458-.306-.699-.947-.699-1.756V9.774c0-.895.319-1.445.76-1.727l16.164 16.018-16.225 16.169Zm1.258-32.366 15.654 15.513 4.661-4.646c-2.89-1.562-18.65-10.078-19.693-10.628a2.03 2.03 0 0 0-.622-.239Z" fill="#F0F0F0"/></svg>