<svg width="40" height="40" fill="none" xmlns="http://www.w3.org/2000/svg"><path d="M37.389 29.787A19.682 19.682 0 0 0 40 19.971c0-3.55-.938-6.944-2.611-9.816-.053-.106-.107-.155-.155-.208A19.926 19.926 0 0 0 20 .077c-7.311 0-13.733 3.97-17.234 9.87-.053.053-.106.155-.155.208C.938 13.027 0 16.368 0 19.97c0 11.02 8.931 19.952 19.952 19.952 7.311 0 13.733-3.97 17.234-9.87.096-.111.15-.164.203-.266ZM2.03 20.91h6.74c.107 2.611.63 5.17 1.461 7.573H4.12a18.71 18.71 0 0 1-2.089-7.573Zm2.089-9.453h6.112c-.89 2.403-1.359 4.908-1.46 7.519H2.03c.16-2.718.89-5.276 2.089-7.52Zm33.897 7.519h-6.634c-.106-2.611-.629-5.116-1.46-7.52h6.006c1.199 2.244 1.929 4.802 2.088 7.52Zm-8.568 0h-8.463v-7.52h6.843a22.352 22.352 0 0 1 1.62 7.52ZM20.99 9.52V2.21c2.505 2.036 4.546 4.492 5.953 7.258H20.99v.053Zm-1.934-7.205v7.157h-5.851c1.412-2.718 3.4-5.121 5.851-7.157Zm0 9.14v7.519h-8.356c.106-2.611.677-5.17 1.62-7.52h6.736Zm-8.356 9.453h8.356v7.573h-6.736c-.938-2.404-1.514-4.962-1.62-7.573Zm8.356 9.502v7.157a22.598 22.598 0 0 1-5.851-7.157h5.851Zm1.934 7.258v-7.258h5.953a23.3 23.3 0 0 1-5.953 7.258Zm0-9.187v-7.573h8.463a22.778 22.778 0 0 1-1.62 7.573H20.99Zm10.392-7.573h6.634c-.154 2.718-.89 5.329-2.142 7.573h-5.952c.831-2.404 1.354-4.962 1.46-7.573Zm3.341-11.388h-5.638a24.003 24.003 0 0 0-5.014-7.103c4.332.996 8.094 3.554 10.652 7.103ZM16.132 2.37c-2.143 2.09-3.81 4.493-5.068 7.157h-5.74C7.882 5.92 11.693 3.308 16.132 2.37ZM5.324 30.411h5.691c1.253 2.664 2.926 5.068 5.068 7.157-4.39-.992-8.201-3.603-10.759-7.157Zm18.748 7.103c2.088-2.088 3.81-4.492 5.014-7.103h5.59c-2.51 3.501-6.272 6.112-10.605 7.103Z" fill="#F1F1F1"/></svg>