<svg width="120" height="60" viewBox="0 0 120 60" fill="none" xmlns="http://www.w3.org/2000/svg">
<path d="M47.5369 22.1493C47.5369 21.6832 47.722 21.2362 48.0516 20.9066C48.3812 20.577 48.8282 20.3919 49.2943 20.3919C49.7604 20.3919 50.2073 20.577 50.5369 20.9066C50.8665 21.2362 51.0516 21.6832 51.0516 22.1493C51.0347 22.604 50.8421 23.0345 50.5144 23.3502C50.1866 23.6659 49.7493 23.8423 49.2943 23.8423C48.8392 23.8423 48.4019 23.6659 48.0741 23.3502C47.7464 23.0345 47.5538 22.604 47.5369 22.1493Z" fill="#273B7D"/>
<path d="M75.2646 33.8696C75.2646 32.8942 76.0503 32.1073 77.0183 32.1073C77.3672 32.1056 77.7088 32.2075 77.9997 32.4001C78.2906 32.5927 78.5178 32.8674 78.6525 33.1892C78.7872 33.5111 78.8234 33.8657 78.7564 34.2081C78.6893 34.5505 78.5222 34.8653 78.2761 35.1126C78.0299 35.36 77.716 35.5286 77.3739 35.5973C77.0318 35.666 76.677 35.6316 76.3545 35.4985C76.032 35.3654 75.7563 35.1395 75.5622 34.8495C75.3682 34.5595 75.2647 34.2185 75.2646 33.8696Z" fill="#499FDD"/>
<path d="M18.7064 33.107C17.1938 33.107 16.1413 31.9053 16.1413 30.187C16.1413 28.4688 17.1938 27.2695 18.7076 27.2695C20.2288 27.2695 21.2923 28.4688 21.2923 30.187C21.2923 31.9322 20.2521 33.107 18.7064 33.107ZM18.7064 24.7032C15.5049 24.7032 13.1809 27.01 13.1809 30.1858C13.1809 33.3616 15.5062 35.6685 18.7064 35.6685C21.9213 35.6685 24.2539 33.3628 24.2539 30.1858C24.2539 27.0088 21.9213 24.7007 18.7076 24.7007L18.7064 24.7032ZM44.1445 30.4599C44.033 30.2444 43.8921 30.0455 43.7259 29.8688L43.628 29.7673L43.7308 29.6694C43.8923 29.498 44.0396 29.3138 44.1713 29.1186L46.9861 24.9185H43.5546L41.4312 28.2045C41.3113 28.3807 41.069 28.4688 40.7056 28.4688H40.2221V22.2568C40.2221 21.0146 39.4475 20.8457 38.6116 20.8457H37.1797L37.1835 35.5069H40.2233V31.1086H40.5085C40.8549 31.1086 41.0899 31.1489 41.1988 31.3374L42.8754 34.5022C43.3441 35.3613 43.8104 35.5057 44.6891 35.5057H47.0179L45.2826 32.6371L44.1322 30.4587L44.1445 30.4599ZM58.8876 24.675C57.3408 24.675 56.3543 25.3628 55.8012 25.9441L55.6176 26.1301L55.5515 25.8768C55.39 25.2526 54.8417 24.9124 54.0181 24.9124H52.656L52.6646 35.502H55.6837V30.6215C55.6837 30.1442 55.7449 29.7306 55.8722 29.3524C56.2075 28.2081 57.145 27.4971 58.3162 27.4971C59.2585 27.4971 59.6256 27.9952 59.6256 29.2802V33.8939C59.6256 34.9905 60.1334 35.5032 61.2312 35.5032H62.668L62.6631 28.7674C62.6631 26.0922 61.3572 24.6775 58.8864 24.6775L58.8876 24.675ZM49.3407 24.9173H47.9089L47.9187 35.5069H49.4448L49.4986 35.5094L50.2108 35.5069H50.9182V35.5032H50.9231L50.9292 26.5266C50.9292 25.4436 50.4115 24.9185 49.3407 24.9185V24.9173ZM30.5614 33.1058C29.0488 33.1058 27.9951 31.904 27.9951 30.1858C27.9951 28.4676 29.0476 27.2683 30.5626 27.2683C32.0777 27.2683 33.1473 28.4676 33.1473 30.1858C33.1473 31.931 32.1071 33.1058 30.5626 33.1058H30.5614ZM30.5614 24.7019C27.3575 24.7019 25.0323 27.0088 25.0323 30.1846C25.0323 33.3604 27.3575 35.6672 30.5639 35.6672C33.7703 35.6672 36.1114 33.3616 36.1114 30.1846C36.1114 27.0076 33.7862 24.6995 30.5639 24.6995" fill="#273B7D"/>
<path d="M95.2618 33.107C93.7492 33.107 92.6942 31.9053 92.6942 30.187C92.6942 28.4688 93.7492 27.2695 95.2618 27.2695C96.7817 27.2695 97.8477 28.4688 97.8477 30.187C97.8477 31.9322 96.8074 33.107 95.2618 33.107ZM95.2618 24.7032C92.0579 24.7032 89.7339 27.01 89.7339 30.1858C89.7339 33.3616 92.0591 35.6685 95.2618 35.6685C98.473 35.6685 100.809 33.3628 100.809 30.1858C100.809 27.0088 98.4841 24.7007 95.2618 24.7007" fill="#499FDD"/>
<path d="M69.032 32.6407C67.3798 32.6407 66.7924 31.2015 66.7924 29.8505C66.7924 29.2557 66.9429 27.3172 68.8729 27.3172C69.8311 27.3172 71.1075 27.5913 71.1075 29.9484C71.1075 32.172 69.9779 32.6383 69.0307 32.6383L69.032 32.6407ZM72.6764 24.8916C72.1037 24.8916 71.6631 25.1205 71.4526 25.5378L71.3694 25.6993L71.23 25.5769C70.7429 25.1559 69.8691 24.6554 68.4519 24.6554C65.6286 24.6554 63.728 26.7763 63.728 29.93C63.728 33.0838 65.6946 35.2854 68.5081 35.2854C69.4688 35.2854 70.2288 35.0602 70.8309 34.605L71.0757 34.4299V34.7237C71.0757 36.1384 70.1615 36.9192 68.5033 36.9192C67.8097 36.9109 67.1227 36.7842 66.4718 36.5447C65.833 36.3513 65.456 36.5116 65.199 37.1541L64.9592 37.7465L64.6202 38.6129L64.8282 38.7231C65.8905 39.286 67.2721 39.6226 68.5204 39.6226C71.0904 39.6226 74.0936 38.307 74.0936 34.605L74.1059 24.8916H72.6764Z" fill="#273B7D"/>
<path d="M7.45356 32.9859L4.99616 32.9835V30.0463C4.99616 29.4173 5.24093 29.0918 5.77695 29.0159H7.45356C8.64922 29.0159 9.4117 29.7698 9.4117 30.9899C9.41047 32.2431 8.65656 32.9847 7.45356 32.9847V32.9859ZM4.99616 25.0606V24.2871C4.99616 23.6103 5.28255 23.2885 5.91036 23.2469H7.16845C8.2454 23.2469 8.88173 23.8918 8.88173 24.9724C8.88173 25.7948 8.4387 26.7555 7.19653 26.7555H4.98518L4.99616 25.0606ZM10.5914 27.9928L10.1471 27.7431L10.5351 27.4127C10.9879 27.0248 11.7418 26.1522 11.7418 24.6469C11.7418 22.3413 9.95502 20.8531 7.18921 20.8531H3.67204C3.27628 20.8675 2.90119 21.0337 2.62459 21.3171C2.348 21.6005 2.19105 21.9795 2.18628 22.3755V35.458H7.25285C10.3283 35.458 12.3133 33.7838 12.3133 31.1906C12.3133 29.7955 11.672 28.601 10.5938 27.994" fill="#273B7D"/>
<path d="M114.294 24.7154C113.671 24.7177 113.056 24.86 112.495 25.1318C111.935 25.4036 111.442 25.7979 111.054 26.2856L110.836 26.5622L110.665 26.2525C110.104 25.2331 109.142 24.7154 107.805 24.7154C106.401 24.7154 105.46 25.4987 105.023 25.9637L104.736 26.2733L104.614 25.8658C104.455 25.2784 103.932 24.9565 103.142 24.9565H101.873L101.861 35.5057H104.743V30.8492C104.744 30.4333 104.796 30.0192 104.896 29.6156C105.171 28.4897 105.927 27.2781 107.199 27.4005C107.982 27.4763 108.366 28.0821 108.366 29.2521V35.5057H111.269V30.8492C111.258 30.4187 111.313 29.9891 111.432 29.5752C111.677 28.5007 112.455 27.3992 113.681 27.3992C114.57 27.3992 114.898 27.901 114.898 29.2521V33.9637C114.898 35.0285 115.373 35.5057 116.44 35.5057H117.796L117.798 28.7711C117.798 26.0788 116.614 24.7154 114.283 24.7154H114.294ZM88.0523 31.8429C88.0437 31.8551 86.804 33.1609 85.1703 33.1609C83.6821 33.1609 82.1792 32.248 82.1792 30.2116C82.1792 28.4517 83.3444 27.2218 85.0136 27.2218C85.5546 27.2218 86.1713 27.4152 86.268 27.7419L86.2802 27.797C86.3419 28.0219 86.4761 28.2203 86.6619 28.3612C86.8478 28.5022 87.075 28.5778 87.3083 28.5766L88.8992 28.579V27.1985C88.8992 25.3775 86.5825 24.7167 85.0246 24.7167C81.691 24.7167 79.2727 27.037 79.2727 30.2336C79.2727 33.4302 81.6641 35.7456 84.9634 35.7456C87.8247 35.7456 89.3691 33.8646 89.3961 33.8463L89.4793 33.7435L88.2285 31.6691L88.0633 31.8441" fill="#499FDD"/>
</svg>
